Coordinates
version=1
nRows=7
nColumns=40
inDegrees=yes

Units are S.I. units (second, meters, Newtons, ...)
Angles are in degrees.

endheader
time	pelvis_tilt	pelvis_list	pelvis_rotation	pelvis_tx	pelvis_ty	pelvis_tz	hip_flexion_r	hip_adduction_r	hip_rotation_r	knee_angle_r	knee_angle_r_beta	ankle_angle_r	subtalar_angle_r	mtp_angle_r	hip_flexion_l	hip_adduction_l	hip_rotation_l	knee_angle_l	knee_angle_l_beta	ankle_angle_l	subtalar_angle_l	mtp_angle_l	lumbar_extension	lumbar_bending	lumbar_rotation	arm_flex_r	arm_add_r	arm_rot_r	elbow_flex_r	pro_sup_r	wrist_flex_r	wrist_dev_r	arm_flex_l	arm_add_l	arm_rot_l	elbow_flex_l	pro_sup_l	wrist_flex_l	wrist_dev_l
     31.71000000	     -7.47322092	     -5.62546623	     -4.58770900	      0.98329480	      0.92245559	      0.49048521	     21.08436848	      3.63958180	     -7.39822340	     20.93009541	     20.93009541	      7.99840486	     -2.53330552	     -1.53540275	      0.49170490	    -11.53485641	    -12.60670489	     18.93596477	     18.93596477	     18.53598067	     -7.29751966	      1.77455103	     -9.03267918	      6.84604561	      1.53686037	    -10.56126230	    -16.56727616	     -9.14492965	     32.54458425	     46.04530993	      0.00000000	      0.00000000	     29.12942001	    -16.19169897	    -12.86147386	     72.59191978	     48.41892199	      0.00000000	      0.00000000
     31.73314286	     -7.52771392	     -5.76354714	     -4.17353621	      0.98526204	      0.92266665	      0.49604429	     20.71648056	      4.08764931	     -7.62551903	     21.05053737	     21.05053737	      8.56744025	     -2.88740493	     -1.08402383	      0.40755628	    -12.28343878	    -12.73701968	     19.35885573	     19.35885573	     18.20616470	     -6.51095429	      1.26219392	     -8.94497407	      6.73000949	      1.37602544	     -9.18764285	    -16.97311452	     -9.02921635	     32.51335502	     46.05101361	      0.00000000	      0.00000000	     27.65785492	    -15.54306116	    -12.42619794	     69.86400772	     48.32078537	      0.00000000	      0.00000000
     31.75628571	     -7.52644846	     -5.85912154	     -3.75828597	      0.98707068	      0.92270703	      0.50141418	     20.34536542	      4.48349093	     -7.82746380	     21.24179618	     21.24179618	      9.12733622	     -3.30129787	     -0.86749461	      0.45589095	    -12.96297066	    -12.55085769	     20.08319163	     20.08319163	     17.81553251	     -6.25561682	      0.74646993	     -8.92982049	      6.58941482	      1.16510577	     -7.68558232	    -17.31183367	     -8.95926805	     32.72800316	     46.05033887	      0.00000000	      0.00000000	     25.88273079	    -14.91681387	    -11.88735895	     67.29846688	     48.22004153	      0.00000000	      0.00000000
     31.77942857	     -7.46398475	     -5.92808374	     -3.37246324	      0.98863138	      0.92264273	      0.50671086	     20.02183175	      4.87603391	     -7.86245699	     21.61541564	     21.61541564	      9.88318496	     -3.87087196	     -0.07798242	      0.62542122	    -13.65422921	    -12.32068330	     21.09538503	     21.09538503	     16.78382350	     -6.33551861	     -1.16570812	     -8.94724888	      6.39377073	      1.36608171	     -5.94146010	    -17.59250370	     -8.45842096	     32.05929692	     46.06032139	      0.00000000	      0.00000000	     24.87121154	    -14.03588797	    -10.75686808	     62.70978404	     48.03941224	      0.00000000	      0.00000000
     31.80257143	     -7.38416795	     -5.97094157	     -2.87469878	      0.98996624	      0.92223835	      0.51162579	     19.75232941	      5.17570375	     -8.00864400	     22.07376306	     22.07376306	     10.48359974	     -4.44757516	     -0.14185250	      1.29024289	    -14.34411338	    -11.58800666	     22.98318229	     22.98318229	     16.24302029	     -6.86072234	     -2.04252069	     -9.02948967	      6.20307290	      0.86756385	     -4.06039812	    -17.75420426	     -8.52600296	     32.83085372	     46.04806236	      0.00000000	      0.00000000	     22.58869811	    -13.60511893	    -10.19520122	     60.25963222	     47.93854476	      0.00000000	      0.00000000
     31.82571429	     -7.19980946	     -5.99091935	     -2.39123450	      0.99107126	      0.92169486	      0.51643618	     19.48114777	      5.46141979	     -8.07888198	     22.69862483	     22.69862483	     11.08178826	     -5.21801386	     -0.17355976	      2.23045833	    -15.04810152	    -10.69870660	     25.53161749	     25.53161749	     15.41472739	     -7.76009513	     -3.30475933	     -9.22767112	      5.99337872	      0.52801482	     -1.91278633	    -17.84732136	     -8.51173950	     33.48453874	     46.03748129	      0.00000000	      0.00000000	     20.40646175	    -13.09292680	     -9.52256411	     57.28167733	     47.82266572	      0.00000000	      0.00000000
     31.84885714	     -7.00764445	     -5.91605247	     -1.88696007	      0.99193374	      0.92086749	      0.52098093	     19.36109843	      5.64206221	     -8.01747184	     23.60491644	     23.60491644	     12.04619594	     -6.08129812	      0.70218591	      3.30323535	    -15.54773784	     -9.47345600	     28.00795503	     28.00795503	     12.11622638	    -10.44613604	     -9.50618169	     -9.27854387	      5.71235692	      0.78551526	      0.40176668	    -17.93192986	     -8.19137072	     33.00619646	     46.05312388	      0.00000000	      0.00000000	     19.63789653	    -12.38665141	     -7.45245947	     50.74532213	     47.55066622	      0.00000000	      0.00000000
